<?xml version="1.0" encoding="utf-8"?>
<!-- Generator: Adobe Illustrator 24.0.0, SVG Export Plug-In . SVG Version: 6.00 Build 0)  -->
<svg version="1.1" id="Layer_1" xmlns="http://www.w3.org/2000/svg" xmlns:xlink="http://www.w3.org/1999/xlink" x="0px" y="0px"
	 viewBox="0 0 26 26" style="enable-background:new 0 0 26 26;" xml:space="preserve">
<style type="text/css">
	.st0{fill:#020101;}
	.st1{fill:#FAB205;}
</style>
<title>blast</title>
<g>
	<polygon class="st0" points="9.3,18.5 4.9,13.6 1.2,17 5.5,21.8 6.1,22.5 7.8,24.3 11.8,20.7 9.6,18.2 	"/>
	<rect x="18.8" y="9.9" transform="matrix(0.7434 -0.6688 0.6688 0.7434 -3.6535 17.8696)" class="st0" width="5.4" height="7.5"/>
	<g>
		<path class="st1" d="M12.2,0.2L1.8,9.6c-2.2,2-2.4,5.4-0.4,7.7l10.5-9.4C14.1,5.8,14.2,2.4,12.2,0.2z"/>
		<path class="st1" d="M18.3,14.3L7.5,24c2,2.2,5.4,2.4,7.7,0.4L26,14.7v0C24,12.5,20.6,12.3,18.3,14.3z"/>
		<path class="st1" d="M11.7,17.4L21,9.1c-1.8-2-4.9-2.2-6.9-0.4l-9.3,8.4C6.5,19.1,9.6,19.3,11.7,17.4z"/>
	</g>
</g>
</svg>
