<?xml version="1.0" encoding="utf-8"?>
<!-- Generator: Adobe Illustrator 24.0.0, SVG Export Plug-In . SVG Version: 6.00 Build 0)  -->
<svg version="1.1" id="Layer_1" xmlns="http://www.w3.org/2000/svg" xmlns:xlink="http://www.w3.org/1999/xlink" x="0px" y="0px"
	 viewBox="0 0 26 26" style="enable-background:new 0 0 26 26;" xml:space="preserve">
<style type="text/css">
	.st0{fill:#EDEDED;}
	.st1{fill:#FAB205;}
</style>
<title>blast</title>
<g>
	<polygon class="st0" points="9.3,18.4 5,13.6 1.3,17 5.6,21.7 6.2,22.4 7.8,24.2 11.8,20.6 9.6,18.1 	"/>
	<rect x="18.4" y="9.2" transform="matrix(0.7434 -0.6688 0.6688 0.7434 -3.5348 17.5441)" class="st0" width="5.4" height="8.3"/>
	<g>
		<path class="st1" d="M12.3,0.3L1.9,9.6c-2.2,2-2.4,5.4-0.4,7.6l10.3-9.3C14.1,5.9,14.2,2.5,12.3,0.3z"/>
		<path class="st1" d="M18.3,14.3L7.6,23.9c2,2.2,5.4,2.4,7.6,0.4l10.7-9.6v0C23.9,12.5,20.5,12.3,18.3,14.3z"/>
		<path class="st1" d="M11.7,17.4l9.2-8.3C19.1,7.1,16,7,14,8.8L4.8,17C6.6,19,9.7,19.2,11.7,17.4z"/>
	</g>
</g>
</svg>
